<svg xmlns="http://www.w3.org/2000/svg" xmlns:xlink="http://www.w3.org/1999/xlink" zoomAndPan="magnify" preserveAspectRatio="xMidYMid meet" version="1.0" viewBox="44.75 134.91 303.4 67.2"><defs><g/></defs><g fill="#ffffff" fill-opacity="1"><g transform="translate(115.754023, 202.113253)"><g><path d="M 33.59375 -67.203125 C 42.78125 -67.203125 50.675781 -63.894531 57.28125 -57.28125 C 63.945312 -50.726562 67.28125 -42.832031 67.28125 -33.59375 C 67.28125 -24.300781 63.945312 -16.40625 57.28125 -9.90625 C 50.675781 -3.300781 42.78125 0 33.59375 0 C 24.414062 0 16.519531 -3.300781 9.90625 -9.90625 C 3.300781 -16.519531 0 -24.414062 0 -33.59375 C 0 -42.78125 3.300781 -50.675781 9.90625 -57.28125 C 16.40625 -63.894531 24.300781 -67.203125 33.59375 -67.203125 Z M 33.59375 -55.9375 C 27.382812 -55.9375 22.09375 -53.753906 17.71875 -49.390625 C 13.40625 -45.078125 11.25 -39.8125 11.25 -33.59375 C 11.25 -27.320312 13.40625 -22.03125 17.71875 -17.71875 C 22.03125 -13.40625 27.320312 -11.25 33.59375 -11.25 C 39.8125 -11.25 45.078125 -13.40625 49.390625 -17.71875 C 53.753906 -22.09375 55.9375 -27.382812 55.9375 -33.59375 C 55.9375 -39.757812 53.753906 -45.023438 49.390625 -49.390625 C 45.023438 -53.753906 39.757812 -55.9375 33.59375 -55.9375 Z M 33.59375 -55.9375 "/></g></g></g><g fill="#ffffff" fill-opacity="1"><g transform="translate(201.002682, 202.113253)"><g><path d="M 11.171875 -11.25 L 44.765625 -11.25 L 44.765625 0 L 0 0 Z M 0 -67.203125 L 11.171875 -67.203125 L 11.171875 -26.453125 L 0 -15.203125 Z M 0 -67.203125 "/></g></g></g><g fill="#ffcf40" fill-opacity="1"><g transform="translate(256.941518, 202.113253)"><g><path d="M 0 -0.921875 L 11.171875 -11.25 L 44.765625 -11.25 L 44.765625 0 L 0 0 Z M 0 -67.203125 L 44.765625 -67.203125 L 44.765625 -55.9375 L 11.171875 -55.9375 Z M 0 -39.140625 L 44.765625 -39.140625 L 44.765625 -27.96875 L 0 -27.96875 Z M 0 -39.140625 "/></g></g></g><g fill="#ffffff" fill-opacity="1"><g transform="translate(314.562604, 202.113253)"><g><path d="M 0 -67.203125 L 33.59375 -67.203125 L 33.59375 -55.9375 L 11.25 -55.9375 L 11.25 0 L 0 0 Z M 0 -67.203125 "/></g></g></g><g fill="#ffffff" fill-opacity="1"><g transform="translate(44.75368, 202.113253)"><g><path d="M 40.578125 -33.59375 L 33.4375 -24.4375 L 33.4375 -24.53125 L 14.359375 0 L 0 0 L 26.375 -33.59375 L 0 -67.203125 L 14.359375 -67.203125 L 33.4375 -42.671875 L 52.578125 -67.203125 L 66.78125 -67.203125 Z M 33.4375 -24.53125 L 33.4375 -24.4375 L 14.359375 0 Z M 33.4375 -24.53125 "/></g></g></g></svg>

