<svg xmlns="http://www.w3.org/2000/svg" xmlns:xlink="http://www.w3.org/1999/xlink" zoomAndPan="magnify" preserveAspectRatio="xMidYMid meet" version="1.0" viewBox="21.37 124.77 330.56 106.97"><defs><g/></defs><g fill="#000000" fill-opacity="1"><g transform="translate(119.532141, 191.976067)"><g><path d="M 33.59375 -67.203125 C 42.78125 -67.203125 50.675781 -63.894531 57.28125 -57.28125 C 63.945312 -50.726562 67.28125 -42.832031 67.28125 -33.59375 C 67.28125 -24.300781 63.945312 -16.40625 57.28125 -9.90625 C 50.675781 -3.300781 42.78125 0 33.59375 0 C 24.414062 0 16.519531 -3.300781 9.90625 -9.90625 C 3.300781 -16.519531 0 -24.414062 0 -33.59375 C 0 -42.78125 3.300781 -50.675781 9.90625 -57.28125 C 16.40625 -63.894531 24.300781 -67.203125 33.59375 -67.203125 Z M 33.59375 -55.9375 C 27.382812 -55.9375 22.09375 -53.753906 17.71875 -49.390625 C 13.40625 -45.078125 11.25 -39.8125 11.25 -33.59375 C 11.25 -27.320312 13.40625 -22.03125 17.71875 -17.71875 C 22.03125 -13.40625 27.320312 -11.25 33.59375 -11.25 C 39.8125 -11.25 45.078125 -13.40625 49.390625 -17.71875 C 53.753906 -22.09375 55.9375 -27.382812 55.9375 -33.59375 C 55.9375 -39.757812 53.753906 -45.023438 49.390625 -49.390625 C 45.023438 -53.753906 39.757812 -55.9375 33.59375 -55.9375 Z M 33.59375 -55.9375 "/></g></g></g><g fill="#000000" fill-opacity="1"><g transform="translate(204.7808, 191.976067)"><g><path d="M 11.171875 -11.25 L 44.765625 -11.25 L 44.765625 0 L 0 0 Z M 0 -67.203125 L 11.171875 -67.203125 L 11.171875 -26.453125 L 0 -15.203125 Z M 0 -67.203125 "/></g></g></g><g fill="#ffcf40" fill-opacity="1"><g transform="translate(260.719636, 191.976067)"><g><path d="M 0 -0.921875 L 11.171875 -11.25 L 44.765625 -11.25 L 44.765625 0 L 0 0 Z M 0 -67.203125 L 44.765625 -67.203125 L 44.765625 -55.9375 L 11.171875 -55.9375 Z M 0 -39.140625 L 44.765625 -39.140625 L 44.765625 -27.96875 L 0 -27.96875 Z M 0 -39.140625 "/></g></g></g><g fill="#000000" fill-opacity="1"><g transform="translate(318.340722, 191.976067)"><g><path d="M 0 -67.203125 L 33.59375 -67.203125 L 33.59375 -55.9375 L 11.25 -55.9375 L 11.25 0 L 0 0 Z M 0 -67.203125 "/></g></g></g><g fill="#000000" fill-opacity="1"><g transform="translate(21.370984, 224.249985)"><g><path d="M 59.890625 -49.59375 L 49.34375 -36.078125 L 49.34375 -36.203125 L 21.203125 0 L 0 0 L 38.9375 -49.59375 L 0 -99.1875 L 21.203125 -99.1875 L 49.34375 -62.984375 L 77.609375 -99.1875 L 98.5625 -99.1875 Z M 49.34375 -36.203125 L 49.34375 -36.078125 L 21.203125 0 Z M 49.34375 -36.203125 "/></g></g></g><g fill="#000000" fill-opacity="1"><g transform="translate(232.024545, 227.256503)"><g><path d="M 1.625 0 L 1.625 -15.765625 L 11.875 -15.765625 L 11.875 -14.59375 L 2.90625 -14.59375 L 2.90625 -8.546875 L 10.078125 -8.546875 L 10.078125 -7.421875 L 2.90625 -7.421875 L 2.90625 -1.09375 L 12.125 -1.09375 L 12.125 0 Z M 1.625 0 "/></g></g></g><g fill="#000000" fill-opacity="1"><g transform="translate(245.126759, 227.256503)"><g><path d="M 1.09375 0 L 1.09375 -11.375 L 2.15625 -11.375 L 2.375 -8.34375 L 2.4375 -8.34375 C 2.46875 -8.476562 2.554688 -8.703125 2.703125 -9.015625 C 2.859375 -9.328125 3.09375 -9.664062 3.40625 -10.03125 C 3.726562 -10.394531 4.148438 -10.707031 4.671875 -10.96875 C 5.191406 -11.238281 5.847656 -11.375 6.640625 -11.375 C 7.421875 -11.375 8.066406 -11.257812 8.578125 -11.03125 C 9.097656 -10.8125 9.519531 -10.507812 9.84375 -10.125 C 10.164062 -9.738281 10.410156 -9.296875 10.578125 -8.796875 C 10.753906 -8.304688 10.867188 -7.789062 10.921875 -7.25 C 10.972656 -6.707031 11 -6.164062 11 -5.625 L 11 0 L 9.75 0 L 9.75 -5.625 C 9.75 -6.5625 9.644531 -7.367188 9.4375 -8.046875 C 9.226562 -8.734375 8.878906 -9.257812 8.390625 -9.625 C 7.910156 -10 7.242188 -10.1875 6.390625 -10.1875 C 5.472656 -10.1875 4.71875 -9.960938 4.125 -9.515625 C 3.539062 -9.066406 3.101562 -8.476562 2.8125 -7.75 C 2.519531 -7.019531 2.375 -6.226562 2.375 -5.375 L 2.375 0 Z M 1.09375 0 "/></g></g></g><g fill="#000000" fill-opacity="1"><g transform="translate(257.333095, 227.256503)"><g><path d="M 3.5 0 C 2.914062 0 2.535156 -0.164062 2.359375 -0.5 C 2.179688 -0.84375 2.09375 -1.242188 2.09375 -1.703125 L 2.09375 -10.5625 L 3.328125 -10.5625 L 3.328125 -1.09375 L 5.984375 -1.09375 L 5.984375 0 Z M 0.21875 -10.328125 L 0.21875 -11.375 C 0.726562 -11.375 1.113281 -11.390625 1.375 -11.421875 C 1.632812 -11.460938 1.816406 -11.570312 1.921875 -11.75 C 2.035156 -11.925781 2.109375 -12.210938 2.140625 -12.609375 C 2.171875 -13.015625 2.1875 -13.582031 2.1875 -14.3125 L 3.328125 -14.3125 L 3.328125 -11.375 L 5.984375 -11.375 L 5.984375 -10.328125 Z M 0.21875 -10.328125 "/></g></g></g><g fill="#000000" fill-opacity="1"><g transform="translate(264.668094, 227.256503)"><g><path d="M 6.15625 0.28125 C 4.945312 0.28125 3.941406 -0.00390625 3.140625 -0.578125 C 2.347656 -1.160156 1.753906 -1.90625 1.359375 -2.8125 C 0.972656 -3.71875 0.789062 -4.65625 0.8125 -5.625 C 0.8125 -6.632812 1.015625 -7.578125 1.421875 -8.453125 C 1.835938 -9.328125 2.441406 -10.03125 3.234375 -10.5625 C 4.023438 -11.101562 4.988281 -11.375 6.125 -11.375 C 7.082031 -11.375 7.925781 -11.160156 8.65625 -10.734375 C 9.394531 -10.316406 9.988281 -9.726562 10.4375 -8.96875 C 10.882812 -8.21875 11.140625 -7.316406 11.203125 -6.265625 C 11.222656 -6.171875 11.234375 -6.054688 11.234375 -5.921875 C 11.234375 -5.796875 11.234375 -5.679688 11.234375 -5.578125 L 2.046875 -5.578125 C 2.046875 -4.140625 2.40625 -2.988281 3.125 -2.125 C 3.84375 -1.269531 4.851562 -0.84375 6.15625 -0.84375 C 7.113281 -0.84375 7.941406 -1.09375 8.640625 -1.59375 C 9.335938 -2.101562 9.769531 -2.785156 9.9375 -3.640625 L 11.203125 -3.640625 C 11.066406 -2.867188 10.765625 -2.191406 10.296875 -1.609375 C 9.835938 -1.023438 9.25 -0.5625 8.53125 -0.21875 C 7.820312 0.113281 7.03125 0.28125 6.15625 0.28125 Z M 2.125 -6.40625 L 9.90625 -6.40625 C 9.894531 -6.757812 9.816406 -7.15625 9.671875 -7.59375 C 9.535156 -8.039062 9.316406 -8.46875 9.015625 -8.875 C 8.710938 -9.28125 8.320312 -9.613281 7.84375 -9.875 C 7.375 -10.144531 6.800781 -10.28125 6.125 -10.28125 C 5.507812 -10.28125 4.96875 -10.171875 4.5 -9.953125 C 4.039062 -9.734375 3.644531 -9.445312 3.3125 -9.09375 C 2.988281 -8.738281 2.726562 -8.332031 2.53125 -7.875 C 2.332031 -7.425781 2.195312 -6.9375 2.125 -6.40625 Z M 2.125 -6.40625 "/></g></g></g><g fill="#000000" fill-opacity="1"><g transform="translate(277.126395, 227.256503)"><g><path d="M 1.453125 0 L 1.453125 -11.375 L 2.546875 -11.375 L 2.75 -8.09375 L 2.71875 -5.65625 L 2.71875 0 Z M 2.71875 -5.484375 L 2.625 -7.953125 C 2.664062 -8.398438 2.785156 -8.828125 2.984375 -9.234375 C 3.179688 -9.648438 3.460938 -10.015625 3.828125 -10.328125 C 4.191406 -10.648438 4.628906 -10.90625 5.140625 -11.09375 C 5.648438 -11.28125 6.25 -11.375 6.9375 -11.375 L 7.5625 -11.375 L 7.5625 -9.9375 L 6.9375 -9.9375 C 5.988281 -9.9375 5.226562 -9.816406 4.65625 -9.578125 C 4.09375 -9.347656 3.671875 -9.03125 3.390625 -8.625 C 3.109375 -8.226562 2.925781 -7.757812 2.84375 -7.21875 C 2.757812 -6.675781 2.71875 -6.097656 2.71875 -5.484375 Z M 2.71875 -5.484375 "/></g></g></g><g fill="#000000" fill-opacity="1"><g transform="translate(285.077314, 227.256503)"><g><path d="M 7.0625 0.28125 C 6.3125 0.28125 5.675781 0.148438 5.15625 -0.109375 C 4.632812 -0.367188 4.203125 -0.6875 3.859375 -1.0625 C 3.523438 -1.4375 3.269531 -1.785156 3.09375 -2.109375 C 2.914062 -2.441406 2.800781 -2.65625 2.75 -2.75 L 2.6875 -2.75 L 2.6875 4.484375 L 1.40625 4.484375 L 1.40625 -11.375 L 2.484375 -11.375 L 2.71875 -8.28125 L 2.765625 -8.28125 C 2.828125 -8.414062 2.929688 -8.644531 3.078125 -8.96875 C 3.222656 -9.300781 3.457031 -9.648438 3.78125 -10.015625 C 4.113281 -10.390625 4.546875 -10.707031 5.078125 -10.96875 C 5.609375 -11.238281 6.257812 -11.375 7.03125 -11.375 C 8.132812 -11.375 9.0625 -11.109375 9.8125 -10.578125 C 10.570312 -10.054688 11.148438 -9.359375 11.546875 -8.484375 C 11.953125 -7.609375 12.15625 -6.617188 12.15625 -5.515625 C 12.15625 -4.410156 11.945312 -3.421875 11.53125 -2.546875 C 11.125 -1.671875 10.539062 -0.976562 9.78125 -0.46875 C 9.03125 0.03125 8.125 0.28125 7.0625 0.28125 Z M 6.921875 -0.921875 C 7.847656 -0.921875 8.601562 -1.140625 9.1875 -1.578125 C 9.78125 -2.015625 10.210938 -2.59375 10.484375 -3.3125 C 10.753906 -4.03125 10.890625 -4.773438 10.890625 -5.546875 C 10.890625 -6.328125 10.738281 -7.066406 10.4375 -7.765625 C 10.144531 -8.460938 9.6875 -9.03125 9.0625 -9.46875 C 8.4375 -9.914062 7.65625 -10.140625 6.71875 -10.140625 C 5.96875 -10.140625 5.296875 -9.957031 4.703125 -9.59375 C 4.109375 -9.226562 3.632812 -8.703125 3.28125 -8.015625 C 2.9375 -7.335938 2.765625 -6.515625 2.765625 -5.546875 C 2.765625 -4.578125 2.953125 -3.738281 3.328125 -3.03125 C 3.703125 -2.332031 4.203125 -1.804688 4.828125 -1.453125 C 5.453125 -1.097656 6.148438 -0.921875 6.921875 -0.921875 Z M 6.921875 -0.921875 "/></g></g></g><g fill="#000000" fill-opacity="1"><g transform="translate(298.123532, 227.256503)"><g><path d="M 1.453125 0 L 1.453125 -11.375 L 2.546875 -11.375 L 2.75 -8.09375 L 2.71875 -5.65625 L 2.71875 0 Z M 2.71875 -5.484375 L 2.625 -7.953125 C 2.664062 -8.398438 2.785156 -8.828125 2.984375 -9.234375 C 3.179688 -9.648438 3.460938 -10.015625 3.828125 -10.328125 C 4.191406 -10.648438 4.628906 -10.90625 5.140625 -11.09375 C 5.648438 -11.28125 6.25 -11.375 6.9375 -11.375 L 7.5625 -11.375 L 7.5625 -9.9375 L 6.9375 -9.9375 C 5.988281 -9.9375 5.226562 -9.816406 4.65625 -9.578125 C 4.09375 -9.347656 3.671875 -9.03125 3.390625 -8.625 C 3.109375 -8.226562 2.925781 -7.757812 2.84375 -7.21875 C 2.757812 -6.675781 2.71875 -6.097656 2.71875 -5.484375 Z M 2.71875 -5.484375 "/></g></g></g><g fill="#000000" fill-opacity="1"><g transform="translate(306.074451, 227.256503)"><g><path d="M 1.484375 0 L 1.484375 -11.375 L 2.765625 -11.375 L 2.765625 0 Z M 2.15625 -13.1875 C 1.78125 -13.1875 1.519531 -13.285156 1.375 -13.484375 C 1.238281 -13.679688 1.171875 -13.910156 1.171875 -14.171875 C 1.171875 -14.429688 1.238281 -14.65625 1.375 -14.84375 C 1.519531 -15.03125 1.78125 -15.125 2.15625 -15.125 C 2.550781 -15.125 2.804688 -15.03125 2.921875 -14.84375 C 3.046875 -14.65625 3.109375 -14.429688 3.109375 -14.171875 C 3.109375 -13.910156 3.046875 -13.679688 2.921875 -13.484375 C 2.804688 -13.285156 2.550781 -13.1875 2.15625 -13.1875 Z M 2.15625 -13.1875 "/></g></g></g><g fill="#000000" fill-opacity="1"><g transform="translate(310.357872, 227.256503)"><g><path d="M 5.59375 0.28125 C 4.832031 0.28125 4.179688 0.175781 3.640625 -0.03125 C 3.097656 -0.25 2.648438 -0.523438 2.296875 -0.859375 C 1.941406 -1.203125 1.660156 -1.550781 1.453125 -1.90625 C 1.242188 -2.257812 1.097656 -2.582031 1.015625 -2.875 C 0.929688 -3.175781 0.890625 -3.40625 0.890625 -3.5625 L 2.15625 -3.5625 C 2.15625 -3.539062 2.175781 -3.382812 2.21875 -3.09375 C 2.269531 -2.800781 2.398438 -2.46875 2.609375 -2.09375 C 2.828125 -1.726562 3.171875 -1.410156 3.640625 -1.140625 C 4.109375 -0.867188 4.757812 -0.734375 5.59375 -0.734375 C 6.21875 -0.734375 6.78125 -0.800781 7.28125 -0.9375 C 7.78125 -1.070312 8.179688 -1.296875 8.484375 -1.609375 C 8.785156 -1.921875 8.9375 -2.328125 8.9375 -2.828125 C 8.9375 -3.421875 8.742188 -3.878906 8.359375 -4.203125 C 7.972656 -4.535156 7.476562 -4.78125 6.875 -4.9375 C 6.28125 -5.101562 5.65625 -5.253906 5 -5.390625 C 4.351562 -5.523438 3.734375 -5.703125 3.140625 -5.921875 C 2.554688 -6.148438 2.082031 -6.476562 1.71875 -6.90625 C 1.351562 -7.34375 1.171875 -7.9375 1.171875 -8.6875 C 1.191406 -9.582031 1.613281 -10.300781 2.4375 -10.84375 C 3.257812 -11.394531 4.3125 -11.671875 5.59375 -11.671875 C 6.082031 -11.671875 6.597656 -11.613281 7.140625 -11.5 C 7.679688 -11.394531 8.179688 -11.203125 8.640625 -10.921875 C 9.097656 -10.640625 9.46875 -10.253906 9.75 -9.765625 C 10.039062 -9.285156 10.160156 -8.65625 10.109375 -7.875 L 8.875 -7.875 C 8.894531 -8.445312 8.796875 -8.910156 8.578125 -9.265625 C 8.367188 -9.617188 8.082031 -9.894531 7.71875 -10.09375 C 7.351562 -10.289062 6.972656 -10.414062 6.578125 -10.46875 C 6.179688 -10.53125 5.828125 -10.5625 5.515625 -10.5625 C 4.640625 -10.5625 3.894531 -10.398438 3.28125 -10.078125 C 2.675781 -9.765625 2.375 -9.28125 2.375 -8.625 C 2.375 -8.082031 2.5625 -7.660156 2.9375 -7.359375 C 3.3125 -7.066406 3.796875 -6.835938 4.390625 -6.671875 C 4.992188 -6.515625 5.617188 -6.367188 6.265625 -6.234375 C 6.921875 -6.109375 7.546875 -5.921875 8.140625 -5.671875 C 8.742188 -5.429688 9.226562 -5.085938 9.59375 -4.640625 C 9.96875 -4.191406 10.15625 -3.566406 10.15625 -2.765625 C 10.15625 -2.046875 9.953125 -1.460938 9.546875 -1.015625 C 9.148438 -0.566406 8.609375 -0.238281 7.921875 -0.03125 C 7.234375 0.175781 6.457031 0.28125 5.59375 0.28125 Z M 5.59375 0.28125 "/></g></g></g><g fill="#000000" fill-opacity="1"><g transform="translate(321.444358, 227.256503)"><g><path d="M 6.15625 0.28125 C 4.945312 0.28125 3.941406 -0.00390625 3.140625 -0.578125 C 2.347656 -1.160156 1.753906 -1.90625 1.359375 -2.8125 C 0.972656 -3.71875 0.789062 -4.65625 0.8125 -5.625 C 0.8125 -6.632812 1.015625 -7.578125 1.421875 -8.453125 C 1.835938 -9.328125 2.441406 -10.03125 3.234375 -10.5625 C 4.023438 -11.101562 4.988281 -11.375 6.125 -11.375 C 7.082031 -11.375 7.925781 -11.160156 8.65625 -10.734375 C 9.394531 -10.316406 9.988281 -9.726562 10.4375 -8.96875 C 10.882812 -8.21875 11.140625 -7.316406 11.203125 -6.265625 C 11.222656 -6.171875 11.234375 -6.054688 11.234375 -5.921875 C 11.234375 -5.796875 11.234375 -5.679688 11.234375 -5.578125 L 2.046875 -5.578125 C 2.046875 -4.140625 2.40625 -2.988281 3.125 -2.125 C 3.84375 -1.269531 4.851562 -0.84375 6.15625 -0.84375 C 7.113281 -0.84375 7.941406 -1.09375 8.640625 -1.59375 C 9.335938 -2.101562 9.769531 -2.785156 9.9375 -3.640625 L 11.203125 -3.640625 C 11.066406 -2.867188 10.765625 -2.191406 10.296875 -1.609375 C 9.835938 -1.023438 9.25 -0.5625 8.53125 -0.21875 C 7.820312 0.113281 7.03125 0.28125 6.15625 0.28125 Z M 2.125 -6.40625 L 9.90625 -6.40625 C 9.894531 -6.757812 9.816406 -7.15625 9.671875 -7.59375 C 9.535156 -8.039062 9.316406 -8.46875 9.015625 -8.875 C 8.710938 -9.28125 8.320312 -9.613281 7.84375 -9.875 C 7.375 -10.144531 6.800781 -10.28125 6.125 -10.28125 C 5.507812 -10.28125 4.96875 -10.171875 4.5 -9.953125 C 4.039062 -9.734375 3.644531 -9.445312 3.3125 -9.09375 C 2.988281 -8.738281 2.726562 -8.332031 2.53125 -7.875 C 2.332031 -7.425781 2.195312 -6.9375 2.125 -6.40625 Z M 2.125 -6.40625 "/></g></g></g><g fill="#000000" fill-opacity="1"><g transform="translate(333.902658, 227.256503)"><g><path d="M 5.59375 0.28125 C 4.832031 0.28125 4.179688 0.175781 3.640625 -0.03125 C 3.097656 -0.25 2.648438 -0.523438 2.296875 -0.859375 C 1.941406 -1.203125 1.660156 -1.550781 1.453125 -1.90625 C 1.242188 -2.257812 1.097656 -2.582031 1.015625 -2.875 C 0.929688 -3.175781 0.890625 -3.40625 0.890625 -3.5625 L 2.15625 -3.5625 C 2.15625 -3.539062 2.175781 -3.382812 2.21875 -3.09375 C 2.269531 -2.800781 2.398438 -2.46875 2.609375 -2.09375 C 2.828125 -1.726562 3.171875 -1.410156 3.640625 -1.140625 C 4.109375 -0.867188 4.757812 -0.734375 5.59375 -0.734375 C 6.21875 -0.734375 6.78125 -0.800781 7.28125 -0.9375 C 7.78125 -1.070312 8.179688 -1.296875 8.484375 -1.609375 C 8.785156 -1.921875 8.9375 -2.328125 8.9375 -2.828125 C 8.9375 -3.421875 8.742188 -3.878906 8.359375 -4.203125 C 7.972656 -4.535156 7.476562 -4.78125 6.875 -4.9375 C 6.28125 -5.101562 5.65625 -5.253906 5 -5.390625 C 4.351562 -5.523438 3.734375 -5.703125 3.140625 -5.921875 C 2.554688 -6.148438 2.082031 -6.476562 1.71875 -6.90625 C 1.351562 -7.34375 1.171875 -7.9375 1.171875 -8.6875 C 1.191406 -9.582031 1.613281 -10.300781 2.4375 -10.84375 C 3.257812 -11.394531 4.3125 -11.671875 5.59375 -11.671875 C 6.082031 -11.671875 6.597656 -11.613281 7.140625 -11.5 C 7.679688 -11.394531 8.179688 -11.203125 8.640625 -10.921875 C 9.097656 -10.640625 9.46875 -10.253906 9.75 -9.765625 C 10.039062 -9.285156 10.160156 -8.65625 10.109375 -7.875 L 8.875 -7.875 C 8.894531 -8.445312 8.796875 -8.910156 8.578125 -9.265625 C 8.367188 -9.617188 8.082031 -9.894531 7.71875 -10.09375 C 7.351562 -10.289062 6.972656 -10.414062 6.578125 -10.46875 C 6.179688 -10.53125 5.828125 -10.5625 5.515625 -10.5625 C 4.640625 -10.5625 3.894531 -10.398438 3.28125 -10.078125 C 2.675781 -9.765625 2.375 -9.28125 2.375 -8.625 C 2.375 -8.082031 2.5625 -7.660156 2.9375 -7.359375 C 3.3125 -7.066406 3.796875 -6.835938 4.390625 -6.671875 C 4.992188 -6.515625 5.617188 -6.367188 6.265625 -6.234375 C 6.921875 -6.109375 7.546875 -5.921875 8.140625 -5.671875 C 8.742188 -5.429688 9.226562 -5.085938 9.59375 -4.640625 C 9.96875 -4.191406 10.15625 -3.566406 10.15625 -2.765625 C 10.15625 -2.046875 9.953125 -1.460938 9.546875 -1.015625 C 9.148438 -0.566406 8.609375 -0.238281 7.921875 -0.03125 C 7.234375 0.175781 6.457031 0.28125 5.59375 0.28125 Z M 5.59375 0.28125 "/></g></g></g></svg>